<svg width="26" height="26" viewBox="0 0 26 26" xmlns="http://www.w3.org/2000/svg">
<path d="M13 11.1429C15.6745 11.1429 18.174 10.9349 20.4987 10.519C22.8234 10.1031 24.6571 9.48884 26 8.67634V11.1429C26 11.8103 25.4188 12.4293 24.2565 13C23.0942 13.5707 21.5143 14.0229 19.5169 14.3566C17.5195 14.6903 15.3472 14.8571 13 14.8571C10.6528 14.8571 8.48047 14.6903 6.48307 14.3566C4.48568 14.0229 2.90582 13.5707 1.74349 13C0.581163 12.4293 0 11.8103 0 11.1429V8.67634C1.34288 9.48884 3.17665 10.1031 5.5013 10.519C7.82595 10.9349 10.3255 11.1429 13 11.1429ZM13 22.2857C15.6745 22.2857 18.174 22.0778 20.4987 21.6618C22.8234 21.2459 24.6571 20.6317 26 19.8192V22.2857C26 22.9531 25.4188 23.5722 24.2565 24.1429C23.0942 24.7135 21.5143 25.1657 19.5169 25.4994C17.5195 25.8331 15.3472 26 13 26C10.6528 26 8.48047 25.8331 6.48307 25.4994C4.48568 25.1657 2.90582 24.7135 1.74349 24.1429C0.581163 23.5722 0 22.9531 0 22.2857V19.8192C1.34288 20.6317 3.17665 21.2459 5.5013 21.6618C7.82595 22.0778 10.3255 22.2857 13 22.2857ZM13 16.7143C15.6745 16.7143 18.174 16.5063 20.4987 16.0904C22.8234 15.6745 24.6571 15.0603 26 14.2478V16.7143C26 17.3817 25.4188 18.0007 24.2565 18.5714C23.0942 19.1421 21.5143 19.5943 19.5169 19.928C17.5195 20.2617 15.3472 20.4286 13 20.4286C10.6528 20.4286 8.48047 20.2617 6.48307 19.928C4.48568 19.5943 2.90582 19.1421 1.74349 18.5714C0.581163 18.0007 0 17.3817 0 16.7143V14.2478C1.34288 15.0603 3.17665 15.6745 5.5013 16.0904C7.82595 16.5063 10.3255 16.7143 13 16.7143ZM13 0C15.3472 0 17.5195 0.166853 19.5169 0.500558C21.5143 0.834263 23.0942 1.28646 24.2565 1.85714C25.4188 2.42783 26 3.04687 26 3.71429V5.57143C26 6.23884 25.4188 6.85789 24.2565 7.42857C23.0942 7.99926 21.5143 8.45145 19.5169 8.78516C17.5195 9.11886 15.3472 9.28571 13 9.28571C10.6528 9.28571 8.48047 9.11886 6.48307 8.78516C4.48568 8.45145 2.90582 7.99926 1.74349 7.42857C0.581163 6.85789 0 6.23884 0 5.57143V3.71429C0 3.04687 0.581163 2.42783 1.74349 1.85714C2.90582 1.28646 4.48568 0.834263 6.48307 0.500558C8.48047 0.166853 10.6528 0 13 0Z"/>
</svg>
