<svg width="26" height="26" viewBox="0 0 26 26" xmlns="http://www.w3.org/2000/svg">
<path fill-rule="evenodd" clip-rule="evenodd" d="M3.77157 3.75855C8.83203 -1.29476 17.0583 -1.24103 22.1496 3.85038C27.2432 8.94396 27.2948 17.1751 22.2349 22.2349C17.1749 27.2948 8.94391 27.2432 3.85032 22.1496C0.831853 19.1312 -0.414614 15.0132 0.120626 11.1083C0.195626 10.5611 0.699999 10.1784 1.24716 10.2534C1.79433 10.3284 2.17709 10.8327 2.10211 11.3799C1.6488 14.6869 2.70376 18.1747 5.26453 20.7355C9.59051 25.0615 16.5552 25.0861 20.8207 20.8207C25.0861 16.5552 25.0613 9.59056 20.7353 5.26459C16.4116 0.940814 9.45186 0.913854 5.1858 5.17276L6.18274 5.17778C6.73502 5.18055 7.18047 5.63051 7.1777 6.18279C7.17492 6.73507 6.72496 7.18052 6.17268 7.17775L2.77861 7.1607C2.23025 7.15794 1.78641 6.71408 1.78365 6.16574L1.7666 2.77166C1.76381 2.21939 2.20928 1.76943 2.76156 1.76664C3.31384 1.76387 3.7638 2.20933 3.76657 2.76161L3.77157 3.75855ZM12.9999 6.66656C13.5521 6.66656 13.9999 7.11428 13.9999 7.66656V12.5857L17.0403 15.6261C17.4308 16.0167 17.4308 16.6499 17.0403 17.0403C16.6497 17.4308 16.0165 17.4308 15.6261 17.0403L11.9999 13.4141V7.66656C11.9999 7.11428 12.4476 6.66656 12.9999 6.66656Z"/>
</svg>
