<svg width="26" height="23" viewBox="0 0 26 23" xmlns="http://www.w3.org/2000/svg">
<path d="M22.9543 6.58636C22.9543 8.541 21.3692 10.1261 19.4146 10.1261C18.4368 10.1261 17.5519 9.72957 16.9111 9.08886C16.224 8.44164 15.7959 7.52514 15.7959 6.50929C15.7959 4.55464 17.381 2.96957 19.3356 2.96957C20.3515 2.96957 21.2671 3.39764 21.9134 4.08293L21.9152 4.08479C22.5569 4.706 22.9552 5.57514 22.9552 6.53714V6.58821V6.58543L22.9543 6.58636ZM11.7808 17.3513C11.7808 17.3476 11.7808 17.3439 11.7808 17.3401C11.7808 15.3428 10.1614 13.7243 8.16493 13.7243C8.16121 13.7243 8.1575 13.7243 8.15286 13.7243H8.15379C7.87614 13.7243 7.60593 13.7559 7.34593 13.8162L7.37007 13.8116L8.879 14.4207C9.60143 14.7021 10.1669 15.2536 10.4613 15.9473L10.4678 15.9659C10.6201 16.2964 10.7092 16.6827 10.7092 17.0894C10.7092 17.4776 10.6284 17.8471 10.4826 18.1814L10.4891 18.1638C10.2069 18.8862 9.6525 19.4508 8.95514 19.7386L8.93657 19.7451C8.60693 19.8946 8.22157 19.981 7.81671 19.981C7.42486 19.981 7.05157 19.8993 6.71357 19.7526L6.73121 19.7591C6.52817 19.6817 6.22824 19.5631 5.83143 19.4034L4.9465 19.0478C5.25943 19.63 5.70793 20.1045 6.25114 20.4388L6.26693 20.4481C6.79436 20.7805 7.43507 20.9783 8.12314 20.9783H8.15471H8.15286H8.164C10.1614 20.9783 11.7799 19.3589 11.7799 17.3624C11.7799 17.3587 11.7799 17.355 11.7799 17.3504L11.7808 17.3513ZM23.8234 6.60121C23.8188 4.15907 21.84 2.18029 19.3988 2.17564C16.9557 2.1775 14.976 4.15814 14.976 6.60121C14.976 9.04429 16.9576 11.0268 19.4016 11.0268C20.6208 11.0268 21.7258 10.5337 22.5253 9.73514C23.3266 8.96071 23.8244 7.87521 23.8244 6.67457C23.8244 6.64857 23.8244 6.62257 23.8234 6.5975V6.60121ZM26 6.60121C26 10.2468 23.0444 13.2034 19.3988 13.2034H19.3979L13.0576 17.8286C12.9499 19.0924 12.3621 20.202 11.4809 20.9876L11.4762 20.9913C10.6275 21.7926 9.47886 22.2857 8.21507 22.2857C8.19372 22.2857 8.17236 22.2857 8.151 22.2857H8.15471C5.80171 22.2839 3.835 20.6356 3.34379 18.4303L3.33729 18.3978L0 17.0625V10.8383L5.64571 13.1161C6.34957 12.6787 7.20479 12.4196 8.11943 12.4196H8.1575H8.15564C8.28131 12.4196 8.45062 12.4292 8.66357 12.4484L12.7846 6.54364C12.831 2.92407 15.7727 0.0065 19.3979 0H19.3988C23.0425 0.00557143 25.9944 2.9575 26 6.60121Z"/>
</svg>
