<svg width="26" height="26" viewBox="0 0 26 26" xmlns="http://www.w3.org/2000/svg">
<path d="M17.8856 5.42746L15.7622 3.30413C14.2456 1.78746 11.7539 1.78746 10.2372 3.30413L8.11387 5.42746C7.69137 5.84996 7.69137 6.54329 8.11387 6.96579L12.2414 11.0933C12.6639 11.5158 13.3464 11.5158 13.7689 11.0933L17.8964 6.96579C18.3081 6.54329 18.3081 5.84996 17.8856 5.42746Z" />
<path d="M5.42746 8.11607L3.30413 10.2394C1.78746 11.756 1.78746 14.2477 3.30413 15.7644L5.42746 17.8877C5.84996 18.3102 6.53246 18.3102 6.95496 17.8877L11.0825 13.7602C11.505 13.3377 11.505 12.6552 11.0825 12.2327L6.96579 8.11607C6.54329 7.69357 5.84996 7.69357 5.42746 8.11607Z" />
<path d="M22.6948 10.2394L20.5715 8.11607C20.149 7.69357 19.4665 7.69357 19.044 8.11607L14.9165 12.2435C14.494 12.666 14.494 13.3485 14.9165 13.771L19.044 17.8985C19.4665 18.321 20.149 18.321 20.5715 17.8985L22.6948 15.7752C24.2115 14.2477 24.2115 11.756 22.6948 10.2394Z" />
<path d="M8.11316 20.5715L10.2365 22.6948C11.7532 24.2115 14.2449 24.2115 15.7615 22.6948L17.8849 20.5715C18.3074 20.149 18.3074 19.4665 17.8849 19.044L13.7574 14.9165C13.3349 14.494 12.6524 14.494 12.2299 14.9165L8.10233 19.044C7.69066 19.4557 7.69066 20.149 8.11316 20.5715Z" />
</svg>
