<svg width="26" height="26" viewBox="0 0 26 26" xmlns="http://www.w3.org/2000/svg">
<path d="M17.4101 3.57588C17.7669 2.80364 18.129 2.03672 18.5072 1.22188C14.3211 -0.540965 10.2415 -0.455752 6.34303 1.8663C2.57236 4.10846 0.527255 7.51698 0 11.9054C0.894735 11.9853 1.74154 12.0599 2.58834 12.1291C3.05169 5.4985 10.38 0.412354 17.4101 3.57588Z"/>
<path d="M25.8142 10.7817C24.9727 10.9255 24.1366 11.0747 23.2632 11.2238C23.7159 14.2595 23.0874 16.997 21.234 19.3936C19.3913 21.7795 16.9201 23.0897 13.9004 23.4252C13.975 24.2827 14.0495 25.1188 14.1187 25.955C20.4405 25.7313 27.2149 19.3829 25.8142 10.7817Z"/>
<path d="M2.55108 13.9558C1.74689 14.025 0.910736 14.0996 0.074585 14.1688C0.27164 19.468 4.89444 25.4329 11.8659 25.9975C11.9405 25.14 12.015 24.2985 12.0843 23.4837C6.63065 22.573 3.47245 19.4148 2.55108 13.9558Z"/>
<path d="M21.2446 6.68622C21.8943 7.52769 22.395 8.45438 22.7837 9.47694C23.5933 9.18402 24.3921 8.8911 25.2283 8.58753C24.2643 6.02049 22.6932 3.97538 20.4617 2.37231C19.9664 3.08065 19.4764 3.773 18.9705 4.49731C19.8332 5.13108 20.6002 5.85007 21.2446 6.68622Z"/>
<path d="M14.2305 20.4588V19.4415C15.0986 19.2764 15.9401 18.9303 16.6964 18.4083L17.4207 19.1326C17.6923 19.3989 18.1237 19.3989 18.3953 19.1326L19.1462 18.3817C19.4125 18.1101 19.4125 17.6787 19.1462 17.4071L18.4113 16.6721C18.9225 15.9159 19.2581 15.0744 19.4178 14.2116H20.4617C20.8398 14.2116 21.1487 13.9027 21.1487 13.5246V12.4594C21.1487 12.0813 20.8398 11.7724 20.4617 11.7724H19.4125C19.2474 10.9096 18.9066 10.0788 18.3953 9.32783L19.1409 8.58222C19.4072 8.31061 19.4072 7.87922 19.1409 7.6076L18.3793 6.85133C18.1077 6.58504 17.6763 6.58504 17.4047 6.85133L16.6591 7.59695C15.9081 7.08567 15.072 6.74482 14.2092 6.57972V5.53053C14.2092 5.1524 13.9003 4.84351 13.5222 4.84351H12.457C12.0789 4.84351 11.77 5.1524 11.77 5.53053V6.57439C10.9072 6.73417 10.0657 7.07502 9.30946 7.5863L8.57983 6.86199C8.30821 6.5957 7.87682 6.5957 7.6052 6.86199L6.85426 7.61825C6.58797 7.88987 6.58797 8.32126 6.85426 8.59287L7.57857 9.31718C7.05665 10.0734 6.71579 10.9149 6.55069 11.783H5.53346C5.15533 11.783 4.84644 12.0919 4.84644 12.4701V13.5352C4.84644 13.9134 5.15533 14.2223 5.53346 14.2223H6.54537C6.71047 15.0957 7.05132 15.9425 7.56792 16.6988L6.86492 17.4177C6.59863 17.6894 6.59863 18.1207 6.86492 18.3924L7.61585 19.1433C7.88747 19.4096 8.31886 19.4096 8.59048 19.1433L9.30413 18.4296C10.0657 18.9462 10.9125 19.2871 11.786 19.4522V20.4641C11.786 20.8422 12.0949 21.1511 12.473 21.1511H13.5382C13.9216 21.1458 14.2305 20.8369 14.2305 20.4588ZM10.4918 15.5111C9.10708 14.1264 9.10175 11.8789 10.4865 10.4942C11.8712 9.10948 14.1187 9.10415 15.5034 10.4889C16.8881 11.8736 16.8934 14.1211 15.5087 15.5058C14.1293 16.8905 11.8818 16.8958 10.4918 15.5111Z"/>
</svg>
